# xmcd
#
# Track frame offsets: 
#        150
#        15158
#        27344
#        47376
#        60278
#        74378
#        97676
#        110036
#        125020
#        136916
#        156065
#        169619
#        183644
#        199694
#        212801
#        226832
#        245222
#        259301
#        272807
#        285605
#
# Disc length: 4038 seconds
#
# Revision: 0
# Processed by: cddbd v1.5.2PL0 Copyright (c) Steve Scherf et al.
# Submitted via: ExactAudioCopy v1.1
#
DISCID=180fc414
DTITLE=Various Artist - De Pré Historie - De Jaren '70 Vol. 2 - De Ultieme 10
DTITLE=CD Collectie - 1971
DYEAR=2019
DGENRE=Top 40
TTITLE0=John Lennon and The Plastic Ono Band - Power To The People
TTITLE1=Redbone - The Witch Queen Of New Orleans
TTITLE2=Joe Cocker - High Time We Went
TTITLE3=Lynn Anderson - Rose Garden
TTITLE4=The Sweet - Co-Co
TTITLE5=Rod Stewart - Maggie May
TTITLE6=Georgie Fame and Alan Price - Rosetta
TTITLE7=Tony Christie - Las Vegas
TTITLE8=The New Inspiration - Rainbow (I Love You)
TTITLE9=Mardi Gras - Too Busy Thinking About My Baby
TTITLE10=Clodagh Rodgers - Jack In The Box
TTITLE11=Gilbert Montagné - The Fool
TTITLE12=Tee Set - She Likes Weeds
TTITLE13=Greyhound - Black And White
TTITLE14=Sandy Coast - True Love That's A Wonder
TTITLE15=Titanic - Sultana
TTITLE16=Joan Baez - Here's To You
TTITLE17=Séverine - Un Banc, Un Arbre, Une Rue
TTITLE18=Ann Christy - Dag Vreemde Man
TTITLE19=Booker T. and The M.G.'s - Melting Pot
EXTD=
EXTT0=
EXTT1=
EXTT2=
EXTT3=
EXTT4=
EXTT5=
EXTT6=
EXTT7=
EXTT8=
EXTT9=
EXTT10=
EXTT11=
EXTT12=
EXTT13=
EXTT14=
EXTT15=
EXTT16=
EXTT17=
EXTT18=
EXTT19=
PLAYORDER=
